<svg xmlns="http://www.w3.org/2000/svg" width="25" height="25" viewBox="0 0 25 25">
    <defs>
        <clipPath id="clip-path">
            <path id="사각형_428" fill="#fff" stroke="#707070" d="M0 0H25V25H0z" transform="translate(268 5309)"/>
        </clipPath>
        <clipPath id="clip-path-2">
            <path id="SVGID" d="M565.3 67.028h1.2s.008 3.3 0 4.063c0 .56 1.248.568 1.246.008l.005-4.028h1.194a.588.588 0 0 0 0-1.174c-.84 0-3.649-.023-3.649-.023a.577.577 0 0 0 0 1.151" class="cls-2" transform="translate(-564.768 -65.877)"/>
        </clipPath>
        <clipPath id="clip-path-3">
            <path id="SVGID-2" d="M583.226 67.317l.668 2.091H582.5zm-.748-.98c-.3.65-1.361 3.72-1.716 4.535-.256.589.848 1.069 1.1.48l.24-.839h2.2s-.076.034.216.8c.236.622 1.376.191 1.14-.432-.337-.89-1.5-4.093-1.716-4.547a.905.905 0 0 0-.79-.36.7.7 0 0 0-.674.36" class="cls-2" transform="translate(-580.724 -65.977)"/>
        </clipPath>
        <clipPath id="clip-path-4">
            <path id="SVGID-3" d="M603.388 66.533c0 1.044.006 4.406.006 4.406s-.1.668.477.668 1.845-.006 2.409-.006.561-1.2 0-1.2-1.593-.006-1.593-.006v-3.866a.658.658 0 0 0-1.3 0" class="cls-2" transform="translate(-603.388 -65.982)"/>
        </clipPath>
        <clipPath id="clip-path-5">
            <path id="SVGID-4" d="M618.606 66.376c.013.458-.015 4.6-.014 4.9 0 .484 1.232.483 1.232 0v-1.628l.362-.29 1.581 2.158c.32.422 1.326-.34 1.006-.762l-1.68-2.212s1.14-1.233 1.589-1.679c.262-.26-.549-1.078-.812-.817s-2.04 2.04-2.04 2.04.016-1.123 0-1.743c-.007-.235-.3-.349-.591-.349-.316 0-.64.13-.634.383" class="cls-2" transform="translate(-618.592 -65.993)"/>
        </clipPath>
        <style>
            .cls-2{fill:#ffb2ca}
        </style>
    </defs>
    <g id="마스크_그룹_136" clip-path="url(#clip-path)" transform="translate(-268 -5309)">
        <g id="그룹_322" transform="translate(24.739 2.402)">
            <path id="패스_81" fill="none" stroke="#c8c8c8" d="M563.741 38.918c-6.437 0-11.656 4.125-11.656 9.214 0 3.312 2.211 6.215 5.53 7.84-.244.91-.883 3.3-1.011 3.807-.158.634.232.626.488.456.2-.134 3.194-2.17 4.485-3.048a14.73 14.73 0 0 0 2.164.159c6.437 0 11.656-4.125 11.656-9.214s-5.218-9.214-11.656-9.214" transform="translate(-307.785 5269.635)"/>
            <g id="그룹_318" clip-path="url(#clip-path-2)" transform="translate(247.295 5314.919)">
                <path id="사각형_424" d="M0 0H5.098V5.781H0z" class="cls-2" transform="translate(-.177)"/>
            </g>
            <g id="그룹_319" clip-path="url(#clip-path-3)" transform="translate(251.065 5314.943)">
                <path id="사각형_425" d="M0 0H5.387V5.963H0z" class="cls-2" transform="translate(-.218)"/>
            </g>
            <g id="그룹_320" clip-path="url(#clip-path-4)" transform="translate(256.417 5314.945)">
                <path id="사각형_426" d="M0 0H3.545V5.626H0z" class="cls-2" transform="translate(-.09)"/>
            </g>
            <g id="그룹_321" clip-path="url(#clip-path-5)" transform="translate(260.007 5314.947)">
                <path id="사각형_427" d="M0 0H4.501V6.154H0z" class="cls-2" transform="translate(0 -.208)"/>
            </g>
        </g>
    </g>
</svg>
