<svg xmlns="http://www.w3.org/2000/svg" width="25" height="25" viewBox="0 0 25 25">
    <defs>
        <clipPath id="clip-path">
            <path id="사각형_13" fill="#fff" stroke="#707070" d="M0 0H25V25H0z" transform="translate(.41)"/>
        </clipPath>
        <style>
            .cls-2{clip-path:url(#clip-path)}
        </style>
    </defs>
    <g id="마스크_그룹_5" class="cls-2" transform="translate(-.41)">
        <g id="마스크_그룹_4" class="cls-2">
            <g id="cart" transform="translate(0 2.541)">
                <path id="패스_1" fill="#666" d="M24.917 39.432a1.772 1.772 0 0 0-1.384-.661H4.239l-.172-1.235A1.787 1.787 0 0 0 2.3 36H.791a.791.791 0 0 0 0 1.582H2.3a.2.2 0 0 1 .2.17l2.135 15.3A1.787 1.787 0 0 0 6.4 54.591h.858a2.373 2.373 0 1 0 4.474 0h4.227a2.373 2.373 0 1 0 4.474 0h1.718a.791.791 0 1 0 0-1.582H6.4a.2.2 0 0 1-.2-.17L6 51.427h15.583a1.79 1.79 0 0 0 1.741-1.407l1.949-9.1a1.772 1.772 0 0 0-.356-1.492zm-14.634 15.95a.791.791 0 1 1-.791-.791.792.792 0 0 1 .791.791zm8.7 0a.791.791 0 1 1-.791-.791.792.792 0 0 1 .793.791zm4.741-14.79l-1.949 9.1a.2.2 0 0 1-.194.157H5.784L4.46 40.353h19.073a.2.2 0 0 1 .194.239z" transform="translate(0 -36.002)"/>
            </g>
        </g>
    </g>
</svg>
