<svg xmlns="http://www.w3.org/2000/svg" width="20" height="20" viewBox="0 0 20 20">
    <defs>
        <clipPath id="clip-path">
            <path id="사각형_1076" fill="#fff" stroke="#707070" d="M0 0H20V20H0z" transform="translate(11731 -14310)"/>
        </clipPath>
        <style>
            .cls-3{fill:#ffb2ca;stroke:#ffb2ca;stroke-width:.4px}
        </style>
    </defs>
    <g id="마스크_그룹_244" clip-path="url(#clip-path)" transform="translate(-11731 14310)">
        <g id="file" transform="translate(11670.927 -14308.45)">
            <g id="그룹_1048" transform="translate(64)">
                <g id="그룹_1047">
                    <path id="패스_444" d="M76.322 4.225H72.8a.353.353 0 0 1-.352-.352V.352A.352.352 0 0 0 72.1 0h-7.044A1.057 1.057 0 0 0 64 1.056v14.786a1.057 1.057 0 0 0 1.056 1.058h10.562a1.057 1.057 0 0 0 1.056-1.056V4.577a.352.352 0 0 0-.352-.352zm-.352 11.617a.353.353 0 0 1-.352.352H65.056a.353.353 0 0 1-.352-.352V1.056A.353.353 0 0 1 65.056.7h6.689v3.173A1.057 1.057 0 0 0 72.8 4.929h3.17z" class="cls-3" transform="translate(-64)"/>
                </g>
            </g>
            <g id="그룹_1050" transform="translate(71.745 .001)">
                <g id="그룹_1049">
                    <path id="패스_445" d="M303.486 4.344L299.262.119a.352.352 0 0 0-.5.5l4.225 4.225a.352.352 0 1 0 .5-.5z" class="cls-3" transform="translate(-298.661 -.016)"/>
                </g>
            </g>
        </g>
    </g>
</svg>
