<svg xmlns="http://www.w3.org/2000/svg" width="40" height="40" viewBox="0 0 40 40">
    <g>
        <g>
            <path fill="#e6e6e6" d="M39.943 26.985a1.188 1.188 0 0 0-.943-.836L26.6 24.26l-5.549-11.779a1.149 1.149 0 0 0-2.1 0L13.4 24.26 1 26.149a1.188 1.188 0 0 0-.946.836 1.27 1.27 0 0 0 .3 1.259l8.972 9.169L7.209 50.36a1.257 1.257 0 0 0 .466 1.2 1.127 1.127 0 0 0 1.234.093L20 45.542l11.091 6.113a1.127 1.127 0 0 0 1.234-.093 1.257 1.257 0 0 0 .466-1.2l-2.118-12.949 8.973-9.169a1.27 1.27 0 0 0 .297-1.259z" transform="translate(0 -11.796) translate(0 11.796) translate(0 -11.796)"/>
        </g>
    </g>
</svg>
