<svg xmlns="http://www.w3.org/2000/svg" width="25" height="25" viewBox="0 0 25 25">
    <defs>
        <clipPath id="clip-path">
            <path id="사각형_833" fill="#fff" stroke="#707070" d="M0 0H25V25H0z" transform="translate(2310 3513.386)"/>
        </clipPath>
        <style>
            .cls-4{fill:#ffb2ca}
        </style>
    </defs>
    <g id="마스크_그룹_193" clip-path="url(#clip-path)" transform="translate(-2310 -3513.386)">
        <g id="phone-call_2_" transform="translate(2310 3513)">
            <g id="그룹_778">
                <path id="패스_207" fill="#c8c8c8" d="M19.744 41.2a2.416 2.416 0 0 0-1.753-.8 2.5 2.5 0 0 0-1.773.8l-1.639 1.633c-.135-.073-.27-.14-.4-.207-.187-.093-.363-.181-.513-.275a17.809 17.809 0 0 1-4.266-3.89A10.507 10.507 0 0 1 8 36.252c.425-.389.819-.793 1.2-1.182.145-.145.29-.3.436-.441a2.379 2.379 0 0 0 0-3.588l-1.414-1.416c-.161-.161-.327-.327-.482-.493-.311-.321-.638-.653-.975-.964a2.455 2.455 0 0 0-1.737-.762 2.54 2.54 0 0 0-1.763.762l-.01.01-1.764 1.779a3.794 3.794 0 0 0-1.125 2.411 9.09 9.09 0 0 0 .664 3.848A22.327 22.327 0 0 0 5 42.833a24.4 24.4 0 0 0 8.125 6.362 12.66 12.66 0 0 0 4.563 1.348c.109.005.223.01.327.01A3.907 3.907 0 0 0 21 49.268c.005-.01.016-.016.021-.026a11.788 11.788 0 0 1 .907-.939c.223-.213.451-.436.674-.669a2.587 2.587 0 0 0 .783-1.794 2.492 2.492 0 0 0-.8-1.779zm1.856 5.46c-.005 0-.005.005 0 0-.2.218-.41.415-.633.633a13.635 13.635 0 0 0-1 1.037 2.5 2.5 0 0 1-1.95.824c-.078 0-.161 0-.239-.005a11.247 11.247 0 0 1-4.045-1.213 23.034 23.034 0 0 1-7.653-5.99 21.052 21.052 0 0 1-3.733-6.217 7.4 7.4 0 0 1-.581-3.246 2.38 2.38 0 0 1 .716-1.54l1.768-1.769a1.179 1.179 0 0 1 .788-.368 1.109 1.109 0 0 1 .757.363l.016.016c.316.3.617.6.933.928.161.166.327.332.493.5l1.416 1.416a.99.99 0 0 1 0 1.607l-.446.446c-.436.446-.85.861-1.3 1.265-.01.01-.021.016-.026.026a1.058 1.058 0 0 0-.27 1.177l.016.047A11.365 11.365 0 0 0 8.3 39.332l.005.005a19.032 19.032 0 0 0 4.6 4.19 7.082 7.082 0 0 0 .638.347c.187.093.363.181.513.275.021.01.041.026.062.036a1.124 1.124 0 0 0 .513.13 1.109 1.109 0 0 0 .788-.358l1.781-1.773a1.173 1.173 0 0 1 .783-.389 1.056 1.056 0 0 1 .747.379l.01.01 2.857 2.857a1.025 1.025 0 0 1 .003 1.624z" transform="translate(-.344 -25.985)"/>
                <path id="패스_208" d="M245.52 87.314a6.674 6.674 0 0 1 5.434 5.434.7.7 0 0 0 .69.581.927.927 0 0 0 .119-.01.7.7 0 0 0 .576-.809 8.069 8.069 0 0 0-6.575-6.575.7.7 0 0 0-.809.57.692.692 0 0 0 .565.809z" class="cls-4" transform="translate(-232.26 -81.47)"/>
                <path id="패스_209" d="M260.416 10.838A13.287 13.287 0 0 0 249.588.011a.7.7 0 1 0-.228 1.379 11.868 11.868 0 0 1 9.676 9.676.7.7 0 0 0 .69.581.926.926 0 0 0 .119-.01.687.687 0 0 0 .571-.799z" class="cls-4" transform="translate(-235.893)"/>
            </g>
        </g>
    </g>
</svg>
