<svg xmlns="http://www.w3.org/2000/svg" width="25" height="25" viewBox="0 0 25 25">
    <defs>
        <clipPath id="clip-path">
            <path id="사각형_429" fill="#fff" stroke="#707070" d="M0 0H25V25H0z" transform="translate(-12612 -15998)"/>
        </clipPath>
        <style>
            .cls-4{fill:#ffb2ca}
        </style>
    </defs>
    <g id="마스크_그룹_137" clip-path="url(#clip-path)" transform="translate(12612 15998)">
        <g id="notes" transform="translate(-12611 -15997.005)">
            <g id="그룹_324" transform="translate(0 .005)">
                <g id="그룹_323">
                    <path id="패스_82" fill="#c8c8c8" d="M22.767 8.709a2.063 2.063 0 0 0-2.9.253L17.9 11.281V4.556a2.075 2.075 0 0 0-.643-1.5L14.645.573A2.057 2.057 0 0 0 13.222 0H2.066A2.068 2.068 0 0 0 0 2.071v19.373a2.068 2.068 0 0 0 2.066 2.066h13.772a2.068 2.068 0 0 0 2.062-2.066v-3.763l5.117-6.062a2.065 2.065 0 0 0-.25-2.91zm-8.995-7.066c2.755 2.617 2.559 2.426 2.611 2.493h-2.611zm2.754 19.8a.689.689 0 0 1-.689.689H2.066a.689.689 0 0 1-.689-.689V2.071a.689.689 0 0 1 .689-.689H12.4v3.443a.689.689 0 0 0 .689.689h3.443v7.4L13.6 16.375a2.076 2.076 0 0 0-.427.848l-.64 2.679a.689.689 0 0 0 .944.792L16 19.6a2.076 2.076 0 0 0 .523-.328zm-1.638-4.461l1.055.885-.235.278a.691.691 0 0 1-.254.189l-1.264.548.32-1.34a.689.689 0 0 1 .141-.281zm1.943-.167l-1.054-.885 3.806-4.5 1.052.883zm5.136-6.083l-.443.525-1.052-.882.444-.526a.686.686 0 0 1 1.05.884z" transform="translate(0 -.005)"/>
                </g>
            </g>
            <g id="그룹_326" transform="translate(2.754 4.137)">
                <g id="그룹_325">
                    <path id="패스_83" d="M67.573 90h-6.886a.689.689 0 1 0 0 1.377h6.886a.689.689 0 1 0 0-1.377z" class="cls-4" transform="translate(-59.998 -90.003)"/>
                </g>
            </g>
            <g id="그룹_328" transform="translate(2.754 8.314)">
                <g id="그룹_327">
                    <path id="패스_84" d="M71.7 181H60.687a.689.689 0 0 0 0 1.377H71.7a.689.689 0 0 0 0-1.377z" class="cls-4" transform="translate(-59.998 -181.001)"/>
                </g>
            </g>
            <g id="그룹_330" transform="translate(2.754 12.446)">
                <g id="그룹_329">
                    <path id="패스_85" d="M71.7 271H60.687a.689.689 0 0 0 0 1.377H71.7a.689.689 0 0 0 0-1.377z" class="cls-4" transform="translate(-59.998 -271)"/>
                </g>
            </g>
            <g id="그룹_332" transform="translate(2.754 16.578)">
                <g id="그룹_331">
                    <path id="패스_86" d="M67.573 361h-6.886a.689.689 0 1 0 0 1.377h6.886a.689.689 0 1 0 0-1.377z" class="cls-4" transform="translate(-59.998 -360.998)"/>
                </g>
            </g>
        </g>
    </g>
</svg>
