<svg xmlns="http://www.w3.org/2000/svg" width="50" height="50" viewBox="0 0 50 50">
    <defs>
        <clipPath id="ikkv6hnzja">
            <path fill="#fff" stroke="#707070" d="M0 0H33V33H0z" transform="translate(-.438 -.438)"/>
        </clipPath>
        <clipPath id="9s80ofu2wb">
            <path fill="#fff" stroke="#fff" d="M0 0H33V33H0z" transform="translate(-.099 -.1)"/>
        </clipPath>
    </defs>
    <g transform="translate(-144.497 -1000.497)">
        <circle cx="25" cy="25" r="25" fill="#ffb2ca" opacity="0.6" transform="translate(144.497 1000.497)"/>
        <g clip-path="url(#ikkv6hnzja)" transform="translate(152.936 1008.936)">
            <g clip-path="url(#9s80ofu2wb)" transform="translate(-.34 -.339)">
                <g>
                    <path fill="#fff" d="M28.12 39.872a2 2 0 0 0-1.562-.746H4.784l-.194-1.394A2.017 2.017 0 0 0 2.6 36H.893a.893.893 0 1 0 0 1.785H2.6a.224.224 0 0 1 .221.192l2.41 17.27A2.017 2.017 0 0 0 7.22 56.98h.968a2.678 2.678 0 1 0 5.049 0h4.771a2.678 2.678 0 1 0 5.049 0H25a.893.893 0 0 0 0-1.785H7.22A.224.224 0 0 1 7 55l-.223-1.59h17.58a2.02 2.02 0 0 0 1.964-1.588l2.2-10.266a2 2 0 0 0-.4-1.684zm-16.515 18a.893.893 0 1 1-.893-.893.894.894 0 0 1 .893.894zm9.82 0a.893.893 0 1 1-.893-.893.894.894 0 0 1 .893.894zm5.351-16.691l-2.2 10.266a.225.225 0 0 1-.219.177H6.527L5.033 40.912h21.524a.223.223 0 0 1 .218.27z" transform="translate(1.574 4.911) translate(0 -36.002)"/>
                </g>
            </g>
        </g>
    </g>
</svg>
