<svg xmlns="http://www.w3.org/2000/svg" width="50" height="50" viewBox="0 0 50 50">
    <g>
        <g fill="none">
            <path d="M25 0A25 25 0 1 1 0 25 25 25 0 0 1 25 0z" transform="translate(-958 -579) translate(958 579)"/>
            <path fill="#c8c8c8" d="M25 2c-3.106 0-6.118.608-8.952 1.807-2.739 1.158-5.199 2.817-7.311 4.93-2.113 2.112-3.772 4.572-4.93 7.311C2.607 18.882 2 21.894 2 25s.608 6.118 1.807 8.952c1.158 2.739 2.817 5.199 4.93 7.311 2.112 2.113 4.572 3.772 7.311 4.93C18.882 47.393 21.894 48 25 48s6.118-.608 8.952-1.807c2.739-1.158 5.199-2.817 7.311-4.93 2.113-2.112 3.772-4.572 4.93-7.311C47.393 31.118 48 28.106 48 25s-.608-6.118-1.807-8.952c-1.158-2.739-2.817-5.199-4.93-7.311-2.112-2.113-4.572-3.772-7.311-4.93C31.118 2.607 28.106 2 25 2m0-2c13.807 0 25 11.193 25 25S38.807 50 25 50 0 38.807 0 25 11.193 0 25 0z" transform="translate(-958 -579) translate(958 579)"/>
        </g>
        <text fill="#c8c8c8" font-family="Roboto-Medium, Roboto" font-size="29px" font-weight="500" transform="translate(-958 -579) translate(979 615)">
            <tspan x="0" y="0">!</tspan>
        </text>
    </g>
</svg>
