<svg xmlns="http://www.w3.org/2000/svg" width="20" height="20" viewBox="0 0 20 20">
    <defs>
        <clipPath id="clip-path">
            <path id="사각형_1488" fill="#fff" stroke="#707070" d="M0 0H20V20H0z" transform="translate(111 637)"/>
        </clipPath>
        <style>
            .cls-3{fill:#333}
        </style>
    </defs>
    <g id="마스크_그룹_293" clip-path="url(#clip-path)" transform="translate(-111 -637)">
        <g id="smile_1_" transform="translate(111.981 637)">
            <g id="그룹_1290">
                <g id="그룹_1289">
                    <path id="패스_516" d="M9.509 0a9.509 9.509 0 1 0 9.509 9.509A9.509 9.509 0 0 0 9.509 0zm0 17.66a8.151 8.151 0 1 1 8.151-8.151 8.151 8.151 0 0 1-8.151 8.151z" class="cls-3"/>
                    <circle id="타원_111" cx="8.5" cy="8.5" r="8.5" fill="#fff" transform="translate(1.019 1)"/>
                </g>
            </g>
            <g id="그룹_1292" transform="translate(4.755 6.792)">
                <g id="그룹_1291">
                    <circle id="타원_109" cx="1.358" cy="1.358" r="1.358" class="cls-3"/>
                </g>
            </g>
            <g id="그룹_1294" transform="translate(11.547 6.792)">
                <g id="그룹_1293">
                    <circle id="타원_110" cx="1.358" cy="1.358" r="1.358" class="cls-3"/>
                </g>
            </g>
            <g id="그룹_1296" transform="translate(6.773 11.532)">
                <g id="그룹_1295">
                    <path id="패스_517" d="M175.526 290.023a.679.679 0 0 0-.951-.138l-.038.03a2.734 2.734 0 0 1-3.225 0 .679.679 0 0 0-.888 1.028l.038.03a4.056 4.056 0 0 0 4.926 0 .679.679 0 0 0 .138-.95z" class="cls-3" transform="translate(-170.189 -289.75)"/>
                </g>
            </g>
        </g>
    </g>
</svg>
