<svg xmlns="http://www.w3.org/2000/svg" width="50" height="50" viewBox="0 0 50 50">
    <defs>
        <clipPath id="clip-path">
            <path id="사각형_1652" fill="#1ec800" stroke="#707070" d="M0 0H20V20H0z" transform="translate(123 659)"/>
        </clipPath>
        <style>
            .cls-3{fill:#fff}
        </style>
    </defs>
    <g id="그룹_1393" transform="translate(-1005 -668)">
        <circle id="타원_118" cx="25" cy="25" r="25" transform="translate(1005 668)"/>
        <g id="마스크_그룹_313" clip-path="url(#clip-path)" transform="translate(897 24)">
            <g id="mac-os-logo" transform="translate(125.172 659.386)">
                <g id="그룹_1377">
                    <path id="패스_536" d="M14.357 8.907a4.348 4.348 0 0 1 2.076-3.661 4.488 4.488 0 0 0-3.516-1.9c-1.495-.153-2.92.88-3.681.88s-1.931-.86-3.172-.837A4.71 4.71 0 0 0 2.087 5.8c-1.7 2.942-.435 7.3 1.218 9.689.808 1.167 1.772 2.478 3.036 2.432 1.218-.049 1.677-.788 3.15-.788s1.886.788 3.173.765c1.311-.025 2.14-1.191 2.941-2.361a10.7 10.7 0 0 0 1.332-2.737 4.254 4.254 0 0 1-2.58-3.893z" class="cls-3" transform="translate(-1.282 1.308)"/>
                    <path id="패스_537" d="M9.741 3.07a4.236 4.236 0 0 0 1-3.07 4.3 4.3 0 0 0-2.832 1.456A4.03 4.03 0 0 0 6.89 4.43a3.565 3.565 0 0 0 2.851-1.36z" class="cls-3" transform="translate(.913)"/>
                </g>
            </g>
        </g>
    </g>
</svg>
