<svg xmlns="http://www.w3.org/2000/svg" width="20" height="20" viewBox="0 0 20 20">
    <defs>
        <clipPath id="clip-path">
            <path id="사각형_1487" fill="#fff" stroke="#707070" d="M0 0H20V20H0z" transform="translate(142 636)"/>
        </clipPath>
        <style>
            .cls-3{fill:#333}
        </style>
    </defs>
    <g id="마스크_그룹_292" clip-path="url(#clip-path)" transform="translate(-142 -636)">
        <g id="chat" transform="translate(141.532 636.484)">
            <g id="그룹_1284" transform="translate(1.002)">
                <g id="그룹_1283">
                    <path id="패스_513" d="M17.443 0H3.5A2.5 2.5 0 0 0 1 2.491V12.4a2.5 2.5 0 0 0 2.491 2.5h4.05l2.5 3.911a.475.475 0 0 0 .418.224.491.491 0 0 0 .418-.229l2.48-3.906h4.085a2.5 2.5 0 0 0 2.491-2.5V2.491A2.5 2.5 0 0 0 17.443 0zm1.495 12.4a1.5 1.5 0 0 1-1.495 1.5h-4.35a.506.506 0 0 0-.423.229l-2.2 3.477-2.229-3.477a.491.491 0 0 0-.418-.229h-4.33A1.5 1.5 0 0 1 2 12.4V2.491A1.5 1.5 0 0 1 3.493 1h13.945a1.5 1.5 0 0 1 1.5 1.495z" class="cls-3" transform="translate(-1.002)"/>
                </g>
            </g>
            <g id="그룹_1286" transform="translate(5.884 5.48)">
                <g id="그룹_1285">
                    <path id="패스_514" d="M103.187 110H99.5a.5.5 0 0 0 0 1h3.687a.5.5 0 0 0 0-1z" class="cls-3" transform="translate(-99.002 -110)"/>
                </g>
            </g>
            <g id="그룹_1288" transform="translate(5.884 7.971)">
                <g id="그룹_1287">
                    <path id="패스_515" d="M107.671 160H99.5a.5.5 0 0 0 0 1h8.17a.5.5 0 0 0 0-1z" class="cls-3" transform="translate(-99.002 -160)"/>
                </g>
            </g>
        </g>
    </g>
</svg>
