<svg xmlns="http://www.w3.org/2000/svg" width="20" height="20" viewBox="0 0 20 20">
    <defs>
        <clipPath id="tato4wjk5a">
            <path fill="#fff" stroke="#707070" d="M0 0H20V20H0z" transform="translate(11842 -14962)"/>
        </clipPath>
    </defs>
    <g clip-path="url(#tato4wjk5a)" transform="translate(-11842 14962)">
        <g fill="#fff">
            <path d="M9.35 9.502H.653c-.085 0-.154-.067-.154-.15V.65C.498.567.568.5.652.5.733.5.8.567.8.65v8.552H9.35c.083 0 .15.068.15.15 0 .082-.069.15-.15.15z" transform="translate(11847 -14957)"/>
            <path fill="#666" d="M9.35 10.002H.653c-.361 0-.654-.292-.654-.65v-.001V.649C-.002.292.291 0 .652 0 1.01 0 1.3.292 1.3.65v8.052H9.35c.357 0 .65.29.65.65 0 .358-.293.65-.65.65z" transform="translate(11847 -14957)"/>
        </g>
    </g>
</svg>
