<svg xmlns="http://www.w3.org/2000/svg" width="20" height="20" viewBox="0 0 20 20">
    <defs>
        <clipPath id="clip-path">
            <path id="사각형_1106" fill="#fff" stroke="#707070" d="M0 0H20V20H0z" transform="translate(267 377)"/>
        </clipPath>
        <style>
            .cls-3{fill:#444}
        </style>
    </defs>
    <g id="마스크_그룹_249" clip-path="url(#clip-path)" transform="translate(-267 -377)">
        <g id="speakers" transform="translate(267 311.939)">
            <g id="그룹_1069" transform="translate(0 67.061)">
                <g id="그룹_1068">
                    <path id="패스_454" d="M13.22 67.228a1.407 1.407 0 0 0-1.447.07l-6.056 4.037h-2.3A1.127 1.127 0 0 0 2.3 72.367h-.324A1.978 1.978 0 0 0 0 74.342v2.118a1.978 1.978 0 0 0 1.976 1.976H2.3a1.127 1.127 0 0 0 1.121 1.031h2.3l6.052 4.033a1.409 1.409 0 0 0 2.191-1.173V68.47a1.407 1.407 0 0 0-.744-1.242zM2.3 77.318h-.324a.859.859 0 0 1-.858-.858v-2.118a.859.859 0 0 1 .858-.858H2.3zm3.032 1.031H3.421a.008.008 0 0 1-.008-.008v-5.88a.008.008 0 0 1 .008-.008h1.906zm7.519 3.983a.291.291 0 0 1-.452.242l-5.954-3.965v-6.415l5.948-3.966a.291.291 0 0 1 .452.242z" class="cls-3" transform="translate(0 -67.061)"/>
                </g>
            </g>
            <g id="그룹_1071" transform="translate(16.207 68.167)">
                <g id="그룹_1070">
                    <path id="패스_455" d="M427.006 92.278a.5.5 0 0 0-.712.712 9.026 9.026 0 0 1 0 12.75.5.5 0 0 0 .712.712 10.033 10.033 0 0 0 0-14.173z" class="cls-3" transform="translate(-426.147 -92.131)"/>
                </g>
            </g>
            <g id="그룹_1073" transform="translate(14.884 70.931)">
                <g id="그룹_1072">
                    <path id="패스_456" d="M364.41 154.875a.5.5 0 1 0-.712.712 5.114 5.114 0 0 1 0 7.223.5.5 0 0 0 .712.712 6.12 6.12 0 0 0 0-8.646z" class="cls-3" transform="translate(-363.551 -154.727)"/>
                </g>
            </g>
        </g>
    </g>
</svg>
