<svg xmlns="http://www.w3.org/2000/svg" width="30" height="30" viewBox="0 0 30 30">
    <defs>
        <clipPath id="gzr6l3nj2a">
            <path fill="#fff" stroke="#707070" d="M0 0H30V30H0z" transform="translate(3308 1444)"/>
        </clipPath>
    </defs>
    <g clip-path="url(#gzr6l3nj2a)" transform="translate(-3308 -1444)">
        <path fill="#ffb2ca" d="M26.893 2.542A7.856 7.856 0 0 0 21.051 0a7.35 7.35 0 0 0-4.59 1.584 9.389 9.389 0 0 0-1.855 1.937 9.383 9.383 0 0 0-1.856-1.937A7.349 7.349 0 0 0 8.16 0a7.856 7.856 0 0 0-5.842 2.542A9.126 9.126 0 0 0 0 8.776a10.867 10.867 0 0 0 2.9 7.114 61.77 61.77 0 0 0 7.252 6.8c1 .856 2.144 1.827 3.327 2.86a1.715 1.715 0 0 0 2.258 0c1.183-1.034 2.322-2 3.328-2.862a61.735 61.735 0 0 0 7.252-6.8 10.866 10.866 0 0 0 2.9-7.115A9.125 9.125 0 0 0 26.9 2.54zm0 0" transform="translate(3308 1446)"/>
    </g>
</svg>
