<svg xmlns="http://www.w3.org/2000/svg" width="30" height="30" viewBox="0 0 30 30">
    <defs>
        <clipPath id="3jna3kxl5a">
            <path fill="#fff" stroke="#707070" d="M0 0H30V30H0z" transform="translate(3417 1412)"/>
        </clipPath>
    </defs>
    <g clip-path="url(#3jna3kxl5a)" transform="translate(-3417 -1412)">
        <path fill="#666" d="M14.6 25.984a1.713 1.713 0 0 1-1.129-.424c-1.18-1.032-2.317-2-3.321-2.856h-.005A61.763 61.763 0 0 1 2.9 15.893 10.871 10.871 0 0 1 0 8.777a9.128 9.128 0 0 1 2.317-6.234A7.854 7.854 0 0 1 8.159 0a7.346 7.346 0 0 1 4.589 1.584A9.389 9.389 0 0 1 14.6 3.521a9.389 9.389 0 0 1 1.855-1.937A7.346 7.346 0 0 1 21.047 0a7.854 7.854 0 0 1 5.842 2.543 9.128 9.128 0 0 1 2.317 6.234 10.869 10.869 0 0 1-2.9 7.115 61.756 61.756 0 0 1-7.25 6.806c-1.005.857-2.145 1.828-3.327 2.862a1.714 1.714 0 0 1-1.129.424zM8.159 1.711A6.162 6.162 0 0 0 3.575 3.7a7.426 7.426 0 0 0-1.864 5.077 9.147 9.147 0 0 0 2.5 6.024 60.779 60.779 0 0 0 7.044 6.6h.005c1.007.859 2.149 1.832 3.338 2.871 1.2-1.041 2.339-2.016 3.349-2.876a60.794 60.794 0 0 0 7.043-6.6 9.147 9.147 0 0 0 2.5-6.024A7.426 7.426 0 0 0 25.632 3.7a6.161 6.161 0 0 0-4.584-1.992A5.674 5.674 0 0 0 17.5 2.937a8.3 8.3 0 0 0-1.974 2.284 1.08 1.08 0 0 1-1.855 0A8.294 8.294 0 0 0 11.7 2.937a5.674 5.674 0 0 0-3.541-1.226zm0 0" transform="translate(3417 1414)"/>
    </g>
</svg>
