<svg xmlns="http://www.w3.org/2000/svg" width="30" height="30" viewBox="0 0 30 30">
    <defs>
        <clipPath id="734973uxya">
            <path fill="#fff" stroke="#707070" d="M0 0H30V30H0z" transform="translate(-5463 50)"/>
        </clipPath>
    </defs>
    <g clip-path="url(#734973uxya)" transform="translate(5463 -50)">
        <g>
            <path fill="#444" d="M29.388 40.047a2.09 2.09 0 0 0-1.633-.78H5l-.2-1.456A2.108 2.108 0 0 0 2.717 36H.933a.933.933 0 0 0 0 1.866h1.784a.234.234 0 0 1 .231.2l2.518 18.052a2.108 2.108 0 0 0 2.079 1.809h1.012a2.8 2.8 0 1 0 5.277 0h4.986a2.8 2.8 0 1 0 5.277 0h2.026a.933.933 0 1 0 0-1.866H7.546a.234.234 0 0 1-.231-.2L7.082 54.2h18.374a2.111 2.111 0 0 0 2.053-1.659l2.3-10.729a2.09 2.09 0 0 0-.42-1.759zM12.129 58.86a.933.933 0 1 1-.933-.933.934.934 0 0 1 .933.933zm10.263 0a.933.933 0 1 1-.933-.933.934.934 0 0 1 .932.933zm5.592-17.445l-2.3 10.729a.235.235 0 0 1-.228.185H6.822L5.26 41.133h22.5a.233.233 0 0 1 .228.282z" transform="translate(-5463 16.998)"/>
        </g>
    </g>
</svg>
