<svg xmlns="http://www.w3.org/2000/svg" width="15" height="15" viewBox="0 0 15 15">
    <g>
        <g>
            <path fill="#ffb2ca" d="M14.979 17.492a.446.446 0 0 0-.355-.314l-4.65-.708-2.08-4.417a.431.431 0 0 0-.788 0l-2.08 4.417-4.65.708a.446.446 0 0 0-.355.314.476.476 0 0 0 .111.472L3.5 21.4l-.8 4.857a.471.471 0 0 0 .175.451.423.423 0 0 0 .463.035L7.5 24.451l4.159 2.292a.423.423 0 0 0 .463-.035.471.471 0 0 0 .175-.451L11.5 21.4l3.365-3.438a.476.476 0 0 0 .114-.47z" transform="translate(0 -11.796) translate(0 11.796) translate(0 -11.796)"/>
        </g>
    </g>
</svg>
