<svg xmlns="http://www.w3.org/2000/svg" width="20" height="20" viewBox="0 0 20 20">
    <g transform="translate(7932 -4483)">
        <circle cx="10" cy="10" r="10" fill="#c8c8c8" transform="translate(-7932 4483)"/>
        <path fill="#fff" d="M-3142.282-603.575l-2.828-2.828-2.828 2.828a.5.5 0 0 1-.708 0 .5.5 0 0 1 0-.707l2.828-2.828-2.828-2.828a.5.5 0 0 1 0-.707.5.5 0 0 1 .708 0l2.828 2.828 2.828-2.828a.5.5 0 0 1 .707 0 .5.5 0 0 1 0 .707l-2.828 2.828 2.828 2.828a.5.5 0 0 1 0 .707.5.5 0 0 1-.354.146.5.5 0 0 1-.353-.146z" transform="translate(-4776.889 5100.111)"/>
    </g>
</svg>
