<svg xmlns="http://www.w3.org/2000/svg" width="30" height="30" viewBox="0 0 30 30">
    <defs>
        <clipPath id="nspg7k8eya">
            <path fill="#fff" stroke="#707070" d="M0 0H30V30H0z" transform="translate(4514 1564)"/>
        </clipPath>
    </defs>
    <g clip-path="url(#nspg7k8eya)" transform="translate(-4514 -1564)">
        <g>
            <g>
                <path fill="#666" d="M38.77 19.384a5.25 5.25 0 0 0-4.226 2.135L26.3 17.3a5.255 5.255 0 0 0-.171-3.452l8.641-5.19a5.233 5.233 0 1 0-.9-1.5l-8.666 5.207a5.254 5.254 0 1 0 .322 6.517l8.224 4.2a5.255 5.255 0 1 0 5.019-3.7zm0-17.632a3.5 3.5 0 1 1-3.5 3.5 3.507 3.507 0 0 1 3.5-3.5zM21.255 19.326a3.5 3.5 0 1 1 3.5-3.5 3.507 3.507 0 0 1-3.5 3.5zm17.515 8.816a3.5 3.5 0 1 1 3.5-3.5 3.507 3.507 0 0 1-3.5 3.5z" transform="translate(4499 1564) translate(16) translate(-16)"/>
            </g>
        </g>
    </g>
</svg>
